<svg xmlns="http://www.w3.org/2000/svg" viewBox="0 0 568.39 287.01"><defs><style>.cls-1{fill:#ffd600;}</style></defs><title>Trompet Yellow</title><g id="Layer_2" data-name="Layer 2"><g id="Layer_1-2" data-name="Layer 1"><path class="cls-1" d="M206,58.66a19.43,19.43,0,1,0-16.45-9.12A19.37,19.37,0,0,0,206,58.66Z"/><circle class="cls-1" cx="258.06" cy="39.24" r="19.42"/><circle class="cls-1" cx="310.09" cy="39.24" r="19.42"/><path class="cls-1" d="M122.06,124.16a85.68,85.68,0,0,1,17-16.92.68.68,0,0,0-.41-1.23L11.92,108.45a6.13,6.13,0,0,0-11.92,2v12A6.13,6.13,0,0,0,12.08,124l107.76,1.31A2.73,2.73,0,0,0,122.06,124.16Z"/><path class="cls-1" d="M568.39,6.69a6.65,6.65,0,0,0-.84-3.25c-1-2-2.74-3.44-5.85-3.44a6.71,6.71,0,0,0-4.39,1.64A31.33,31.33,0,0,0,553,6.91c-2,2.74-3.36,4.65-5.92,7.83C523.69,43.89,490.7,64.66,454.8,75.62q-6.12,1.87-12.35,3.33c-38.06,8.94-77,9.19-115.91,10.48V65.6a1.37,1.37,0,0,0-2.06-1.18,28.9,28.9,0,0,1-28.78,0,1.37,1.37,0,0,0-2.06,1.18V90.35c-6,.17-12.3.37-19.12.63V65.6a1.37,1.37,0,0,0-2.06-1.18,28.9,28.9,0,0,1-28.78,0,1.37,1.37,0,0,0-2.06,1.18V92.51l-8.36.48c-3.79.22-7.35.45-10.76.69V65.6a1.37,1.37,0,0,0-2.06-1.18,28.9,28.9,0,0,1-28.78,0,1.37,1.37,0,0,0-2.06,1.18V97c-17,2.64-27.11,6.55-37.69,13.43-22.42,14.6-36.59,38.12-36.59,65.19,0,37,30,69.18,74.27,85.79v8.71c0,9.22,7.55,17.06,16.77,16.88a16.45,16.45,0,0,0,16.14-16.45v-.23c6.27,1.1,12.71,1.91,19.28,2.42a16.44,16.44,0,0,0,32.58,0c6.57-.51,13-1.32,19.29-2.42v.09a16.45,16.45,0,1,0,32.91.14v-9.14c44.26-16.6,74.27-48.8,74.27-85.79a68.27,68.27,0,0,0-2.34-17.71,2.7,2.7,0,0,0-2.43-2c-3.19-.21-6.52-.38-10-.51l-15-.57a.68.68,0,0,0-.65,1c2.63,6.31,2.58,12.92,2.58,19.81,0,24.12-18.24,45.53-46.38,58.9V141.29q32.23,1.33,64.42,3.5c28,1.92,55.77,5.07,81.83,16.32,31.57,13.62,53.24,32.78,81.45,66.4,2.67,3.18,4.83,5.6,7.46,5.6a6.71,6.71,0,0,0,6.69-6.69ZM189.57,234.76c-16.32-7.67-29.29-18.05-37.14-30.25-20.68-32.13,6.26-58.13,37.14-63.64Zm52,13.5a173.16,173.16,0,0,1-19.12-2.79v-107c6.35-.12,12.74-.09,19.12,0Zm52-2.86a170.29,170.29,0,0,1-19.12,2.85V139.54c4.86.18,9.7.35,14.5.47l4.62.14Z"/></g></g></svg>